# This file uses centimeters as units for non-parametric coordinates.

mtllib menu.mtl
g default
v -1.691833 1.372703 0.124671
v 1.078492 1.380150 0.124658
v -1.588210 1.264975 -0.018421
v 0.800162 1.309387 -0.013580
v -1.299147 0.407416 -0.012010
v 1.112926 0.270301 -0.011771
v -1.528674 0.307205 0.126526
v 1.380466 0.141600 0.126815
v -1.977639 1.034651 -0.013102
v -1.382152 0.544506 -0.012248
v 1.220671 1.023710 -0.013083
v 1.270460 0.464389 -0.012109
v 1.499001 0.499420 0.126191
v 1.499001 1.094473 0.125155
v -1.723495 0.499420 0.126191
v -2.268167 1.094473 0.125155
v 0.095126 1.377507 0.124662
v 0.211731 1.294713 -0.015180
v 0.316703 1.558694 0.120620
v 0.357326 1.520551 0.054976
v 0.789062 1.559964 0.120618
v 0.655367 1.527600 0.055745
v -0.080247 0.164302 -0.011586
v -0.055904 0.049541 0.126975
v -1.266882 0.605516 0.266670
v 0.856637 0.605516 0.266670
v 0.856637 0.997637 0.265987
v -1.625803 0.997637 0.265987
v 0.579504 1.189217 0.265619
v -0.068501 1.187475 0.265622
v -1.246018 1.180982 0.265667
v -1.138501 0.478853 0.266890
v -0.167995 0.309061 0.267186
v 0.778526 0.369725 0.267080
v 0.388748 1.311036 0.262917
v 0.077479 1.310199 0.262918
vt 0.154464 0.305183
vt 0.821310 0.307467
vt 0.740081 0.355554
vt 0.364721 0.361763
vt 0.242508 0.364826
vt 0.697191 0.205135
vt 0.144031 0.188408
vt 0.176879 0.147887
vt 0.425703 0.125757
vt 0.679887 0.176514
vt 0.334129 0.408913
vt 0.272986 0.410384
vt 0.825704 0.457852
vt 0.472129 0.459438
vt 0.445805 0.432098
vt 0.801219 0.422278
vt 0.714135 0.139101
vt 0.431617 0.058821
vt 0.427959 0.020925
vt 0.778737 0.106010
vt 0.125703 0.342609
vt 0.027893 0.365976
vt 0.026812 0.169481
vt 0.109632 0.157914
vt 0.889353 0.346222
vt 0.982943 0.365976
vt 0.151227 0.460311
vt 0.242084 0.436944
vt 0.072270 0.051324
vt 0.145879 0.093823
vt 0.839169 0.169481
vt 0.732595 0.184370
vt 0.431755 0.519269
vt 0.413321 0.506673
vt 0.275260 0.509001
vt 0.231861 0.519688
vt 0.297767 0.676077
vt 0.793519 0.676077
vt 0.793520 0.767621
vt 0.213975 0.767621
vt 0.728819 0.812347
vt 0.577539 0.811941
vt 0.302638 0.810425
vt 0.327738 0.646506
vt 0.554311 0.606867
vt 0.775284 0.621029
vt 0.684286 0.840787
vt 0.611620 0.840592
vt 0.676906 0.891943
vt 0.665471 0.901570
vt 0.756415 0.901891
vt 0.727521 0.893722
vt 0.936673 0.634213
vt 0.935698 0.784402
vt 0.774544 0.759961
vt 0.776788 0.660991
vt 0.082439 0.784402
vt 0.208605 0.634213
vt 0.319043 0.660991
vt 0.241010 0.759961
vt 0.829164 0.856506
vt 0.713621 0.808315
vt 0.613321 0.855839
vt 0.223859 0.854627
vt 0.322938 0.806237
vt 0.580068 0.807876
vt 0.254916 0.585698
vt 0.575284 0.520665
vt 0.552557 0.586167
vt 0.345453 0.629022
vt 0.904226 0.543900
vt 0.761655 0.601478
vt 0.673468 0.839062
vt 0.617298 0.838851
vn -0.006733 0.985635 0.168756
vn -0.006677 0.983015 0.183404
vn -0.007455 0.826750 -0.562519
vn -0.007455 0.826750 -0.562519
vn 0.000195 -0.003852 -0.999993
vn 0.000271 -0.004681 -0.999989
vn 0.000943 -0.011963 -0.999928
vn 0.000604 0.006535 -0.999978
vn 0.000441 0.015472 -0.999880
vn -0.135882 -0.731525 -0.668137
vn -0.042995 -0.729814 -0.682292
vn -0.049193 -0.938403 0.342022
vn -0.170023 -0.939684 0.296793
vn 0.000000 0.001741 0.999999
vn 0.000000 0.001741 0.999999
vn 0.000002 0.001766 0.999998
vn 0.000002 0.001768 0.999998
vn 0.412739 0.209152 -0.886511
vn 0.916641 0.306761 0.256257
vn 0.627968 -0.079331 0.774185
vn 0.467187 -0.067812 -0.881554
vn -0.395347 -0.039673 -0.917675
vn -0.760941 -0.010381 0.648738
vn -0.363729 0.717801 0.593686
vn -0.303978 0.568542 -0.764433
vn 0.304366 0.446552 -0.841399
vn 0.304366 0.446552 -0.841399
vn 0.000004 0.002959 0.999996
vn 0.000005 0.002755 0.999996
vn 0.000008 0.001859 0.999998
vn 0.000000 0.001742 0.999999
vn 0.000000 0.001742 0.999999
vn 0.000000 0.001742 0.999999
vn 0.538807 -0.221497 0.812789
vn 0.442670 -0.222940 -0.868528
vn -0.000000 -0.001742 -0.999999
vn -0.000000 -0.001742 -0.999999
vn 0.000000 -0.001742 -0.999999
vn 0.000000 -0.001742 -0.999999
vn 0.000000 -0.001742 -0.999999
vn -0.353576 -0.299846 -0.886045
vn -0.637874 -0.619861 0.457044
vn -0.370728 -0.372375 -0.850822
vn -0.353576 -0.299846 -0.886045
vn -0.009061 0.882479 -0.470265
vn -0.003279 0.675790 0.737087
vn -0.003580 0.701572 0.712589
vn -0.009061 0.882479 -0.470265
vn -0.479928 0.544651 -0.687767
vn -0.631299 0.747670 -0.206037
vn -0.604944 0.709088 -0.362266
vn -0.479928 0.544651 -0.687767
vn -0.000055 0.022090 0.999756
vn -0.000055 0.022090 0.999756
vn 0.296854 0.461019 -0.836265
vn 0.296854 0.461019 -0.836265
vn 0.296854 0.461019 -0.836265
vn 0.296854 0.461019 -0.836265
vn -0.004795 0.299679 -0.954028
vn -0.004795 0.299679 -0.954028
vn 0.054228 -0.721170 -0.690632
vn 0.066727 -0.949022 0.308066
vn 0.213908 0.001701 0.976852
vn 0.209980 -0.022860 0.977438
vn -0.238963 -0.222923 0.945094
vn -0.240272 -0.218283 0.945845
vn 0.171482 0.252395 0.952308
vn 0.167620 0.263005 0.950122
vn 0.167771 0.262593 0.950209
vn 0.171482 0.252395 0.952308
vn -0.002245 0.593030 0.805177
vn -0.002245 0.593030 0.805177
vn -0.155706 0.324159 0.933101
vn -0.155706 0.324159 0.933101
vn -0.030893 -0.485401 0.873746
vn -0.088211 -0.502703 0.859947
vn 0.029907 -0.465091 0.884758
vn 0.202846 -0.065495 0.977018
vn -0.235061 -0.236605 0.942743
vn -0.235061 -0.236605 0.942743
vn 0.161818 0.278765 0.946628
vn 0.161818 0.278765 0.946628
vn -0.001334 0.497897 0.867235
vn -0.001334 0.497897 0.867235
vn -0.608000 0.741619 0.283438
vn -0.608000 0.741619 0.283439
s 1
g pCube1
usemtl initialShadingGroup
f 1/13/1 17/14/2 18/15/3 3/16/4
s 2
f 11/1/5 9/2/6 3/3/7 18/4/8 4/5/9
s 3
f 5/17/10 23/18/11 24/19/12 7/20/13
s 4
f 25/37/14 26/38/15 27/39/16 28/40/17
s 5
f 11/21/18 14/22/19 13/23/20 12/24/21
s 6
f 9/25/22 16/26/23 1/13/24 3/16/25
s 5
f 2/27/26 14/22/19 11/21/18 4/28/27
s 4
f 28/40/17 27/39/16 29/41/28 30/42/29 31/43/30
f 32/44/31 33/45/32 34/46/33 26/38/15 25/37/14
s 5
f 12/24/21 13/23/20 8/29/34 6/30/35
s 2
f 10/6/36 12/7/37 6/8/38 23/9/39 5/10/40
f 11/1/5 12/7/37 10/6/36 9/2/6
s 6
f 7/20/41 15/31/42 10/32/43 5/17/44
f 10/32/43 15/31/42 16/26/23 9/25/22
s 7
f 20/49/45 19/50/46 21/51/47 22/52/48
s 8
f 18/15/49 17/14/50 19/33/51 20/34/52
s 4
f 30/42/29 29/41/28 35/47/53 36/48/54
s off
f 2/27/55 4/28/56 22/35/57 21/36/58
s 2
f 4/5/9 18/4/8 20/11/59 22/12/60
s 3
f 24/19/12 23/18/11 6/30/61 8/29/62
s 5
f 13/53/20 14/54/19 27/55/63 26/56/64
s 6
f 16/57/23 15/58/42 25/59/65 28/60/66
s 9
f 14/54/67 2/61/68 29/62/69 27/55/70
s 1
f 17/63/2 1/64/1 31/65/71 30/66/72
s 6
f 1/64/24 16/57/23 28/60/73 31/65/74
s 3
f 7/67/13 24/68/12 33/69/75 32/70/76
f 24/68/12 8/71/62 34/72/77 33/69/75
s 5
f 8/71/34 13/53/20 26/56/64 34/72/78
s 6
f 15/58/42 7/67/79 32/70/80 25/59/65
s 9
f 2/61/68 21/51/81 35/73/82 29/62/69
s 7
f 21/51/47 19/50/46 36/74/83 35/73/84
s 8
f 19/50/51 17/63/50 30/66/85 36/74/86
