# This file uses centimeters as units for non-parametric coordinates.

mtllib menu2.mtl
g default
v -36.846288 29.895981 2.715199
v 23.488387 30.058169 2.714916
v -34.589491 27.549782 -0.401189
v 17.426661 28.517028 -0.295758
v -28.294013 8.873078 -0.261565
v 24.238321 5.886863 -0.256360
v -33.292862 6.690592 2.755599
v 30.065052 3.083894 2.761893
v -43.070832 22.533577 -0.285347
v -30.101771 11.858750 -0.266748
v 26.584892 22.295294 -0.284934
v 27.669241 10.113889 -0.263721
v 32.646616 10.876826 2.748303
v 32.646616 23.836435 2.725740
v -37.535852 10.876826 2.748303
v -49.398218 23.836435 2.725740
v 2.071741 30.000608 2.715003
v 4.611272 28.197445 -0.330604
v 6.897448 33.946665 2.626973
v 7.782173 33.115951 1.197318
v 17.184915 33.974323 2.626929
v 14.273183 33.269472 1.214066
v -1.747693 3.578319 -0.252331
v -1.217529 1.078949 2.765378
v -27.591315 13.187482 5.807783
v 18.656625 13.187482 5.807783
v 18.656625 21.727451 5.792909
v -35.408226 21.727451 5.792909
v 12.620969 25.899856 5.784894
v -1.491878 25.861917 5.784959
v -27.136922 25.720507 5.785939
v -24.795318 10.428899 5.812574
v -3.658749 6.731013 5.819021
v 16.955452 8.052209 5.816713
v 8.466510 28.552942 5.726047
v 1.687409 28.534714 5.726069
vt 0.825704 0.457852
vt 0.472129 0.459438
vt 0.445805 0.432098
vt 0.801219 0.422278
vt 0.154464 0.305183
vt 0.821310 0.307467
vt 0.740081 0.355554
vt 0.364721 0.361763
vt 0.242508 0.364826
vt 0.714135 0.139101
vt 0.431617 0.058821
vt 0.427959 0.020925
vt 0.778737 0.106010
vt 0.297767 0.676077
vt 0.793519 0.676077
vt 0.793520 0.767621
vt 0.213975 0.767621
vt 0.125703 0.342609
vt 0.027893 0.365976
vt 0.026812 0.169481
vt 0.109632 0.157914
vt 0.889353 0.346222
vt 0.982943 0.365976
vt 0.151227 0.460311
vt 0.242084 0.436944
vt 0.728819 0.812347
vt 0.577539 0.811941
vt 0.302638 0.810425
vt 0.327738 0.646506
vt 0.554311 0.606867
vt 0.775284 0.621029
vt 0.072270 0.051324
vt 0.145879 0.093823
vt 0.697191 0.205135
vt 0.144031 0.188408
vt 0.176879 0.147887
vt 0.425703 0.125757
vt 0.679887 0.176514
vt 0.839169 0.169481
vt 0.732595 0.184370
vt 0.676906 0.891943
vt 0.665471 0.901570
vt 0.756415 0.901891
vt 0.727521 0.893722
vt 0.431755 0.519269
vt 0.413321 0.506673
vt 0.684286 0.840787
vt 0.611620 0.840592
vt 0.275260 0.509001
vt 0.231861 0.519688
vt 0.334129 0.408913
vt 0.272986 0.410384
vt 0.936673 0.634213
vt 0.935698 0.784402
vt 0.774544 0.759961
vt 0.776788 0.660991
vt 0.082439 0.784402
vt 0.208605 0.634213
vt 0.319043 0.660991
vt 0.241010 0.759961
vt 0.829164 0.856506
vt 0.713621 0.808315
vt 0.613321 0.855839
vt 0.223859 0.854627
vt 0.322938 0.806237
vt 0.580068 0.807876
vt 0.254916 0.585698
vt 0.575284 0.520665
vt 0.552557 0.586167
vt 0.345453 0.629022
vt 0.904226 0.543900
vt 0.761655 0.601478
vt 0.673468 0.839062
vt 0.617298 0.838851
vn -0.006733 0.985635 0.168756
vn -0.006677 0.983015 0.183404
vn -0.007455 0.826751 -0.562519
vn -0.007455 0.826751 -0.562519
vn 0.000195 -0.003852 -0.999993
vn 0.000271 -0.004681 -0.999989
vn 0.000943 -0.011963 -0.999928
vn 0.000604 0.006535 -0.999978
vn 0.000441 0.015472 -0.999880
vn -0.135882 -0.731525 -0.668137
vn -0.042995 -0.729814 -0.682292
vn -0.049193 -0.938403 0.342022
vn -0.170023 -0.939684 0.296793
vn 0.000000 0.001741 0.999998
vn 0.000000 0.001741 0.999998
vn 0.000002 0.001766 0.999998
vn 0.000002 0.001768 0.999998
vn 0.412739 0.209152 -0.886511
vn 0.916641 0.306761 0.256257
vn 0.627968 -0.079331 0.774185
vn 0.467187 -0.067812 -0.881554
vn -0.395347 -0.039673 -0.917675
vn -0.760941 -0.010381 0.648738
vn -0.363729 0.717801 0.593686
vn -0.303978 0.568542 -0.764433
vn 0.304366 0.446552 -0.841399
vn 0.916641 0.306761 0.256257
vn 0.412739 0.209152 -0.886511
vn 0.304366 0.446552 -0.841399
vn 0.000002 0.001768 0.999998
vn 0.000002 0.001766 0.999998
vn 0.000004 0.002959 0.999996
vn 0.000005 0.002755 0.999996
vn 0.000008 0.001859 0.999998
vn 0.000000 0.001742 0.999998
vn 0.000000 0.001742 0.999998
vn 0.000000 0.001742 0.999998
vn 0.000000 0.001741 0.999998
vn 0.000000 0.001741 0.999998
vn 0.467187 -0.067812 -0.881554
vn 0.627968 -0.079331 0.774185
vn 0.538807 -0.221497 0.812789
vn 0.442670 -0.222940 -0.868528
vn 0.000000 -0.001742 -0.999998
vn 0.000000 -0.001742 -0.999998
vn 0.000000 -0.001742 -0.999998
vn 0.000000 -0.001742 -0.999998
vn 0.000000 -0.001742 -0.999998
vn 0.000195 -0.003852 -0.999993
vn 0.000000 -0.001742 -0.999998
vn 0.000000 -0.001742 -0.999998
vn 0.000271 -0.004681 -0.999989
vn -0.353576 -0.299846 -0.886045
vn -0.637874 -0.619861 0.457044
vn -0.370728 -0.372375 -0.850822
vn -0.353576 -0.299846 -0.886045
vn -0.370728 -0.372375 -0.850822
vn -0.637874 -0.619861 0.457044
vn -0.760941 -0.010381 0.648738
vn -0.395347 -0.039673 -0.917675
vn -0.009061 0.882479 -0.470265
vn -0.003279 0.675790 0.737087
vn -0.003580 0.701572 0.712589
vn -0.009061 0.882479 -0.470265
vn -0.479928 0.544651 -0.687767
vn -0.631299 0.747670 -0.206037
vn -0.604944 0.709088 -0.362266
vn -0.479928 0.544651 -0.687767
vn 0.000005 0.002755 0.999996
vn 0.000004 0.002959 0.999996
vn -0.000055 0.022090 0.999756
vn -0.000055 0.022090 0.999756
vn 0.296854 0.461019 -0.836265
vn 0.296854 0.461019 -0.836265
vn 0.296854 0.461019 -0.836265
vn 0.296854 0.461019 -0.836265
vn 0.000441 0.015472 -0.999880
vn 0.000604 0.006535 -0.999978
vn -0.004795 0.299679 -0.954028
vn -0.004795 0.299679 -0.954028
vn -0.049193 -0.938403 0.342022
vn -0.042995 -0.729814 -0.682292
vn 0.054228 -0.721170 -0.690632
vn 0.066727 -0.949022 0.308066
vn 0.627968 -0.079331 0.774185
vn 0.916641 0.306761 0.256257
vn 0.213908 0.001701 0.976852
vn 0.209980 -0.022860 0.977438
vn -0.760941 -0.010381 0.648738
vn -0.637874 -0.619861 0.457044
vn -0.238963 -0.222923 0.945094
vn -0.240272 -0.218283 0.945845
vn 0.171482 0.252395 0.952308
vn 0.167620 0.263005 0.950122
vn 0.167771 0.262593 0.950209
vn 0.171482 0.252395 0.952308
vn -0.006677 0.983015 0.183404
vn -0.006733 0.985635 0.168756
vn -0.002245 0.593030 0.805177
vn -0.002245 0.593030 0.805177
vn -0.363729 0.717801 0.593686
vn -0.760941 -0.010381 0.648738
vn -0.155706 0.324159 0.933101
vn -0.155706 0.324159 0.933101
vn -0.170023 -0.939684 0.296793
vn -0.049193 -0.938403 0.342022
vn -0.030893 -0.485401 0.873746
vn -0.088211 -0.502703 0.859947
vn -0.049193 -0.938403 0.342022
vn 0.066727 -0.949022 0.308066
vn 0.029907 -0.465091 0.884758
vn -0.030893 -0.485401 0.873746
vn 0.538807 -0.221497 0.812789
vn 0.627968 -0.079331 0.774185
vn 0.209980 -0.022860 0.977438
vn 0.202846 -0.065495 0.977018
vn -0.637874 -0.619861 0.457044
vn -0.235061 -0.236605 0.942743
vn -0.235061 -0.236605 0.942743
vn -0.238963 -0.222923 0.945094
vn 0.167620 0.263005 0.950122
vn 0.161818 0.278765 0.946628
vn 0.161818 0.278765 0.946628
vn 0.167771 0.262593 0.950209
vn -0.003580 0.701572 0.712589
vn -0.003279 0.675790 0.737087
vn -0.001334 0.497897 0.867235
vn -0.001334 0.497897 0.867235
vn -0.604944 0.709088 -0.362266
vn -0.631299 0.747670 -0.206037
vn -0.608000 0.741619 0.283438
vn -0.608000 0.741619 0.283439
s off
g menux
usemtl initialShadingGroup
f 1/1/1 17/2/2 18/3/3 3/4/4
f 11/5/5 9/6/6 3/7/7 18/8/8 4/9/9
f 5/10/10 23/11/11 24/12/12 7/13/13
f 25/14/14 26/15/15 27/16/16 28/17/17
f 11/18/18 14/19/19 13/20/20 12/21/21
f 9/22/22 16/23/23 1/1/24 3/4/25
f 2/24/26 14/19/27 11/18/28 4/25/29
f 28/17/30 27/16/31 29/26/32 30/27/33 31/28/34
f 32/29/35 33/30/36 34/31/37 26/15/38 25/14/39
f 12/21/40 13/20/41 8/32/42 6/33/43
f 10/34/44 12/35/45 6/36/46 23/37/47 5/38/48
f 11/5/49 12/35/50 10/34/51 9/6/52
f 7/13/53 15/39/54 10/40/55 5/10/56
f 10/40/57 15/39/58 16/23/59 9/22/60
f 20/41/61 19/42/62 21/43/63 22/44/64
f 18/3/65 17/2/66 19/45/67 20/46/68
f 30/27/69 29/26/70 35/47/71 36/48/72
f 2/24/73 4/25/74 22/49/75 21/50/76
f 4/9/77 18/8/78 20/51/79 22/52/80
f 24/12/81 23/11/82 6/33/83 8/32/84
f 13/53/85 14/54/86 27/55/87 26/56/88
f 16/57/89 15/58/90 25/59/91 28/60/92
f 14/54/93 2/61/94 29/62/95 27/55/96
f 17/63/97 1/64/98 31/65/99 30/66/100
f 1/64/101 16/57/102 28/60/103 31/65/104
f 7/67/105 24/68/106 33/69/107 32/70/108
f 24/68/109 8/71/110 34/72/111 33/69/112
f 8/71/113 13/53/114 26/56/115 34/72/116
f 15/58/117 7/67/118 32/70/119 25/59/120
f 2/61/121 21/43/122 35/73/123 29/62/124
f 21/43/125 19/42/126 36/74/127 35/73/128
f 19/42/129 17/63/130 30/66/131 36/74/132
