# This file uses meters as units for non-parametric coordinates.

mtllib title.mtl
g default
v -292.403866 18.019139 39.735502
v 287.224612 31.580036 39.735502
v -300.716732 182.570989 39.735502
v 309.010072 172.286351 39.735502
v -285.634062 178.562171 -39.735502
v 290.622907 172.735602 -39.735502
v -292.803866 20.406020 -39.735502
v 293.805434 30.094637 -39.735502
v -322.558508 76.517252 39.735502
v 333.836336 76.428327 39.735502
v 326.431124 76.123846 -39.735502
v -318.528632 83.671046 -39.735502
v 0.000000 207.969918 39.735502
v 0.000000 60.899199 39.735502
v 0.000000 -4.400006 39.735502
v 0.000000 1.548894 -39.735502
v 0.000000 68.719434 -39.735502
v 0.000000 207.695289 -39.735502
v 0.000000 120.882036 39.735502
v 0.000000 44.716701 39.735502
v 0.000000 36.799719 -39.735502
v 0.000000 120.882036 -39.735502
v 341.761050 136.787686 39.735502
v 323.423377 136.033689 -39.735502
v -303.445893 120.882036 -39.735502
v -322.558508 136.500095 39.735502
v 190.814337 130.581211 39.735502
v 190.814337 130.581211 -39.735502
v -164.057067 120.882036 -39.735502
v -151.074272 120.882036 39.735502
v 311.072751 61.834373 39.735502
v 318.222431 46.512561 -39.735502
v -322.958555 49.655076 -39.735502
v -322.558508 47.268196 39.735502
v 193.940121 54.559284 39.735502
v 194.480186 41.424648 -39.735502
v -189.266664 31.650143 -39.735502
v -151.074272 44.716701 39.735502
v -151.074272 60.899199 39.735502
v -151.074272 207.443507 39.735502
v -151.074272 207.452521 -39.735502
v -206.641139 76.779980 -39.735502
v -203.187012 20.406020 -39.735502
v -189.266664 15.467645 39.735502
v 192.995112 77.542814 -39.735502
v 195.112897 26.036694 -39.735502
v 195.141735 25.334920 39.735502
v 193.278572 70.649018 39.735502
v 189.553825 161.237587 39.735502
v 188.975136 175.311857 -39.735502
v -300.716732 195.243018 0.826340
v -151.074272 220.132515 0.826340
v 0.000000 220.132515 0.826338
v 188.350090 190.513398 0.826340
v 308.335544 188.691167 0.826340
v 341.761050 136.787686 0.826340
v 353.635650 77.242417 0.826340
v 345.426911 47.631129 0.826340
v 321.578794 17.376812 0.826338
v 195.681823 12.200297 0.826338
v 0.000000 -17.466543 0.826340
v -189.266664 2.401101 0.826338
v -310.186283 8.607711 0.826338
v -340.340948 31.650143 0.826338
v -340.340948 60.899199 0.826338
v -340.340948 120.882036 0.826338
v -127.775245 257.218445 0.571460
v -127.775245 248.449522 -27.479298
v -23.299023 257.218445 0.571459
v -23.299023 248.617376 -27.479298
v -127.775245 248.443340 27.479298
v -23.299023 248.807370 27.479298
v 372.191649 75.392996 0.942529
v 371.721870 51.550029 0.942529
v 345.027349 53.562355 -45.873391
v 346.608677 77.451037 -45.873391
v 335.897217 59.675576 46.413461
v 354.422764 71.552475 46.413461
v -224.274847 66.224438 -75.621476
v -296.839229 68.719312 -75.621476
v -212.495452 49.634224 -75.621476
v -299.729779 61.382489 -75.621476
v -226.822243 42.297397 -75.621476
v -280.053770 42.297397 -75.621476
vt 0.517874 0.380816
vt 0.506010 0.339021
vt 0.327167 0.387971
vt 0.353202 0.468096
vt 0.491942 0.289464
vt 0.482360 0.255717
vt 0.301739 0.310435
vt 0.311406 0.339865
vt 0.082146 0.527538
vt 0.215193 0.513267
vt 0.176650 0.437506
vt 0.056418 0.477076
vt 0.124032 0.409766
vt 0.018710 0.439963
vt 0.291047 0.277940
vt 0.478276 0.241340
vt 0.126266 0.362923
vt 0.110060 0.356769
vt 0.629892 0.303822
vt 0.614474 0.247689
vt 0.597968 0.222868
vt 0.570481 0.215141
vt 0.610804 0.347601
vt 0.249135 0.543982
vt 0.344098 0.512900
vt 0.634243 0.242538
vt 0.625516 0.221005
vt 0.641944 0.261049
vt 0.768785 0.223621
vt 0.743755 0.253297
vt 0.686061 0.267217
vt 0.814992 0.300072
vt 0.757106 0.282597
vt 0.645316 0.325395
vt 0.689721 0.280913
vt 0.801620 0.327309
vt 0.753344 0.298736
vt 0.699945 0.360771
vt 0.713158 0.311962
vt 0.405827 0.454221
vt 0.470249 0.435447
vt 0.485382 0.446607
vt 0.405410 0.461497
vt 0.474925 0.457187
vt 0.428196 0.472566
vt 0.186511 0.739569
vt 0.257435 0.820627
vt 0.221926 0.844913
vt 0.126509 0.760715
vt 0.316251 0.959771
vt 0.228139 0.940254
vt 0.247919 0.922402
vt 0.305762 0.936136
vt 0.571009 0.847186
vt 0.360865 0.875687
vt 0.339684 0.840179
vt 0.578342 0.774633
vt 0.722649 0.876156
vt 0.708857 0.831536
vt 0.720711 0.744217
vt 0.799723 0.761718
vt 0.748140 0.612652
vt 0.261308 0.250655
vt 0.334979 0.210592
vt 0.258253 0.187519
vt 0.253074 0.246345
vt 0.324891 0.239606
vt 0.391694 0.143225
vt 0.332855 0.105796
vt 0.290310 0.179053
vt 0.360281 0.216912
vt 0.483491 0.131303
vt 0.474161 0.098427
vt 0.614992 0.087794
vt 0.637643 0.031285
vt 0.795974 0.137126
vt 0.795989 0.086573
vt 0.908571 0.106277
vt 0.864612 0.146088
vt 0.957871 0.156118
vt 0.875756 0.200720
vt 0.967357 0.237996
vt 0.866410 0.272769
vt 0.112222 0.587982
vt 0.210627 0.610504
vt 0.539689 0.439009
vt 0.567431 0.524453
vt 0.377347 0.576478
vt 0.368708 0.546029
vt 0.586677 0.583259
vt 0.591883 0.599119
vt 0.398746 0.651992
vt 0.394210 0.636013
vt 0.878973 0.428330
vt 0.714752 0.475969
vt 0.686476 0.391272
vt 0.831995 0.371950
vt 0.906505 0.492804
vt 0.739432 0.550560
vt 0.734194 0.534710
vt 0.897055 0.464151
vt 0.406989 0.681017
vt 0.587164 0.636875
vt 0.882714 0.519935
vt 0.788150 0.553828
vt 0.281676 0.682621
vt 0.314780 0.704581
vt 0.254879 0.675591
vt 0.227641 0.619007
vt 0.248247 0.573675
vt 0.549421 0.391457
vt 0.650375 0.358629
vt 0.257401 0.692954
vt 0.235908 0.687129
vt 0.339808 0.844484
vt 0.359237 0.879033
vt 0.565937 0.842248
vt 0.564303 0.804918
vt 0.438741 0.090225
vt 0.614340 0.026501
vt 0.616829 0.071780
vt 0.446913 0.123417
vt 0.692260 0.865796
vt 0.776020 0.758125
vt 0.691279 0.737522
vt 0.655571 0.818868
vt 0.872848 0.354869
vt 0.957173 0.358115
vt 0.121207 0.765783
vt 0.182338 0.738757
vt 0.821699 0.619361
vt 0.269951 0.177218
vt 0.343315 0.184828
vt 0.744053 0.606465
vt 0.877764 0.184765
vt 0.965583 0.147643
vt 0.974275 0.226581
vt 0.869312 0.258437
vt 0.874664 0.126525
vt 0.802371 0.123738
vt 0.798419 0.080804
vt 0.917262 0.100133
vt 0.208758 0.849918
vt 0.245733 0.827271
vt 0.811263 0.621123
vt 0.732018 0.600851
vt 0.291718 0.168746
vt 0.322856 0.098058
vt 0.366515 0.129960
vt 0.350937 0.168370
vt 0.244645 0.924623
vt 0.225096 0.941618
vt 0.314739 0.959366
vt 0.304260 0.936128
vt 0.201518 0.600677
vt 0.117183 0.581730
vt 0.965043 0.371551
vt 0.859317 0.375417
vt 0.329300 0.251590
vt 0.822964 0.631082
vt 0.269342 0.228550
vt 0.337673 0.235327
vn -0.000000 0.000000 1.000000
vn -0.000000 0.000000 1.000000
vn -0.000000 0.000000 1.000000
vn 0.000000 0.000000 1.000000
vn 0.153752 0.935677 -0.317600
vn 0.179174 0.980191 0.084390
vn 0.112447 0.988741 0.098728
vn 0.101743 0.936527 -0.335508
vn -0.000000 0.000000 -1.000000
vn -0.000000 0.000000 -1.000000
vn -0.000000 0.000000 -1.000000
vn 0.000000 0.000000 -1.000000
vn 0.109997 -0.993598 -0.025770
vn 0.021649 -0.998442 -0.051429
vn 0.018765 -0.920959 -0.389208
vn 0.094765 -0.930034 -0.355044
vn 0.785208 0.590565 -0.186228
vn 0.924506 0.337159 -0.177800
vn 0.820076 0.319673 -0.474641
vn 0.722317 0.539879 -0.432191
vn -0.789671 0.250669 -0.559986
vn -0.951294 0.257530 -0.169464
vn -0.875774 0.412096 -0.251391
vn -0.761972 0.331447 -0.556365
vn -0.000000 0.000000 1.000000
vn 0.000000 0.000000 1.000000
vn 0.000000 0.000000 1.000000
vn -0.000000 0.000000 1.000000
vn 0.968760 -0.236751 -0.073839
vn 0.968778 -0.236437 -0.074605
vn 0.871820 -0.037463 -0.488392
vn 0.871820 -0.037463 -0.488392
vn -0.000000 0.000000 -1.000000
vn 0.000000 0.000000 -1.000000
vn 0.000000 0.000000 -1.000000
vn 0.000000 0.000000 -1.000000
vn -0.828346 -0.235518 -0.508305
vn -0.865608 -0.500174 -0.023435
vn -0.997577 0.055707 -0.041674
vn -0.847953 0.115209 -0.517399
vn 0.000000 0.000000 1.000000
vn 0.000000 0.000000 1.000000
vn 0.000000 0.000000 1.000000
vn 0.000000 0.000000 1.000000
vn -0.000000 0.000000 1.000000
vn -0.000000 0.000000 1.000000
vn 0.000000 0.000000 1.000000
vn 0.000000 0.000000 1.000000
vn -0.017161 -0.909873 -0.414531
vn -0.055244 -0.911665 -0.407203
vn -0.078313 -0.995289 -0.057162
vn -0.034284 -0.998875 -0.032760
vn 0.000000 0.000000 -1.000000
vn 0.000000 0.000000 -1.000000
vn -0.000000 0.000000 -1.000000
vn -0.000000 0.000000 -1.000000
vn 0.000000 0.000000 -1.000000
vn 0.000000 0.000000 -1.000000
vn 0.000000 0.000000 -1.000000
vn 0.000000 0.000000 -1.000000
vn -0.174789 0.984130 -0.030616
vn -0.174864 0.984020 -0.033577
vn -0.173213 0.915352 -0.363494
vn -0.173213 0.915352 -0.363495
vn 0.983983 0.078379 -0.160108
vn 0.865835 0.107871 -0.488563
vn 0.000000 0.000000 -1.000000
vn 0.000000 0.000000 -1.000000
vn 0.000000 0.000000 1.000000
vn 0.000000 0.000000 1.000000
vn 0.724684 -0.646283 0.239065
vn 0.728691 -0.654725 0.200860
vn 0.602915 -0.623492 -0.497746
vn 0.602915 -0.623492 -0.497746
vn 0.000000 0.000000 -1.000000
vn 0.000000 0.000000 -1.000000
vn -0.000000 0.000000 -1.000000
vn -0.000000 0.000000 -1.000000
vn -0.571989 -0.659692 -0.487478
vn -0.655020 -0.755454 -0.015422
vn 0.000000 0.000000 1.000000
vn 0.000000 0.000000 1.000000
vn -0.000767 0.955260 -0.295765
vn -0.001263 0.999998 -0.001672
vn -0.001263 0.999998 -0.001672
vn -0.000767 0.955260 -0.295765
vn 0.000000 0.000000 -1.000000
vn 0.000000 0.000000 -1.000000
vn -0.000000 0.000000 -1.000000
vn -0.000000 0.000000 -1.000000
vn 0.000000 0.000000 -1.000000
vn 0.000000 0.000000 -1.000000
vn 0.046464 -0.998919 0.001129
vn 0.038879 -0.945567 -0.323096
vn -0.000000 0.000000 1.000000
vn 0.000000 0.000000 1.000000
vn -0.000000 0.000000 1.000000
vn -0.000000 0.000000 1.000000
vn -0.000000 0.000000 1.000000
vn -0.010349 0.993072 0.117052
vn 0.018497 0.932046 -0.361867
vn -0.000000 0.000000 -1.000000
vn -0.156147 0.939120 0.306059
vn -0.156147 0.939120 0.306059
vn -0.001660 0.952602 0.304216
vn -0.001660 0.952602 0.304216
vn 0.175782 0.870039 0.460578
vn 0.090626 0.871413 0.482105
vn -0.033199 0.861568 0.506556
vn 0.928897 0.314221 0.195997
vn 0.791545 0.599318 0.119481
vn 0.968551 0.031906 0.246762
vn 0.776092 -0.412715 0.476810
vn 0.776092 -0.412715 0.476810
vn 0.578139 -0.455720 0.676812
vn 0.578139 -0.455720 0.676812
vn 0.107740 -0.937907 0.329730
vn 0.049006 -0.935266 0.350537
vn 0.024901 -0.947397 0.319090
vn -0.075811 -0.949318 0.305037
vn -0.037437 -0.957737 0.285199
vn -0.575843 -0.664137 0.476787
vn -0.787806 -0.382217 0.482983
vn -0.909515 0.000000 0.415671
vn -0.919520 0.261914 0.293061
vn -0.875628 0.446903 0.183173
vn -0.835831 0.523981 -0.163801
vn -0.835831 0.523981 -0.163801
vn -0.835831 0.523981 -0.163801
vn -0.835831 0.523981 -0.163801
vn 0.836246 0.524262 -0.160752
vn 0.836246 0.524262 -0.160752
vn 0.836246 0.524262 -0.160752
vn 0.836246 0.524262 -0.160752
vn -0.000461 0.286668 -0.958030
vn -0.000461 0.286668 -0.958030
vn -0.000461 0.286668 -0.958030
vn -0.000461 0.286668 -0.958030
vn -0.833730 0.524962 0.171200
vn -0.833730 0.524962 0.171200
vn -0.833730 0.524962 0.171200
vn -0.833730 0.524962 0.171200
vn -0.001000 0.286931 0.957951
vn -0.001000 0.286931 0.957951
vn -0.001000 0.286931 0.957951
vn -0.001000 0.286931 0.957951
vn 0.834748 0.525554 0.164282
vn 0.834748 0.525554 0.164282
vn 0.834748 0.525554 0.164282
vn 0.834748 0.525554 0.164282
vn 0.100062 -0.993348 0.056980
vn 0.187048 -0.974321 -0.125347
vn 0.187048 -0.974321 -0.125347
vn 0.094762 -0.993192 0.067744
vn -0.260457 0.047661 -0.964308
vn -0.260457 0.047661 -0.964308
vn -0.260457 0.047661 -0.964308
vn -0.260457 0.047661 -0.964308
vn 0.013852 0.999901 0.002383
vn 0.078219 0.995199 0.058833
vn 0.083292 0.994514 0.063285
vn 0.013852 0.999901 0.002383
vn -0.000643 -0.966857 0.255316
vn -0.000643 -0.966857 0.255316
vn 0.147847 0.981706 0.119979
vn 0.147847 0.981706 0.119979
vn -0.216905 0.338328 0.915689
vn -0.216905 0.338328 0.915689
vn -0.216905 0.338328 0.915689
vn -0.216905 0.338328 0.915689
vn 0.047936 0.942031 -0.332083
vn 0.047936 0.942031 -0.332083
vn 0.047936 0.942031 -0.332083
vn 0.047936 0.942031 -0.332083
vn 0.818138 0.386453 -0.425798
vn 0.780799 -0.068833 -0.620979
vn 0.813918 0.072892 -0.576389
vn 0.818138 0.386453 -0.425798
vn -0.835355 0.147878 -0.529447
vn -0.835355 0.147878 -0.529447
vn 0.424332 -0.645078 -0.635466
vn 0.424332 -0.645078 -0.635466
vn 0.000000 -0.853694 -0.520775
vn 0.000000 -0.853694 -0.520775
vn -0.574338 -0.592121 -0.565268
vn -0.574338 -0.592121 -0.565269
vn -0.574338 -0.592121 -0.565268
vn -0.574338 -0.592121 -0.565268
s 1
g pCube1
usemtl initialShadingGroup
f 13/86/1 19/87/2 27/88/3 49/89/4
s 2
f 18/115/5 53/116/6 54/117/7 50/118/8
s 3
f 50/1/9 28/2/10 22/3/11 18/4/12
s 4
f 60/119/13 61/120/14 16/121/15 46/122/16
s 5
f 55/123/17 56/124/18 24/125/19 6/126/20
s 6
f 25/155/21 66/156/22 51/129/23 5/130/24
s 1
f 14/90/25 20/91/26 35/92/27 48/93/28
s 8
f 73/161/29 74/132/30 75/133/31 76/162/32
s 3
f 45/5/33 36/6/34 21/7/35 17/8/36
s 6
f 33/135/37 64/136/38 65/137/39 12/138/40
s 1
f 26/94/41 30/95/42 40/96/43 3/97/44
f 34/98/45 38/99/46 39/100/47 9/101/48
s 4
f 7/139/49 43/140/50 62/141/51 63/142/52
s 14
f 80/40/53 79/41/54 81/42/55 82/43/56
s 3
f 5/9/57 41/10/58 29/11/59 25/12/60
s 15
f 51/129/61 52/143/62 41/144/63 5/130/64
s 1
f 48/93/28 27/88/3 19/87/2 14/90/25
s 5
f 56/124/18 57/145/65 11/146/66 24/125/19
s 3
f 17/8/36 22/3/11 28/2/10 45/5/33
f 25/12/60 29/11/59 42/13/67 12/14/68
s 6
f 12/138/40 65/137/39 66/128/22 25/127/21
s 1
f 9/101/48 39/100/47 30/95/42 26/94/41
f 47/102/69 35/92/27 20/91/26 15/103/70
s 16
f 58/147/71 59/148/72 8/149/73 32/150/74
s 3
f 16/15/75 21/7/35 36/6/34 46/16/76
s 14
f 82/43/56 81/42/55 83/44/77 84/45/78
s 6
f 7/139/79 63/142/80 64/136/38 33/135/37
s 1
f 1/104/81 44/105/82 38/99/46 34/98/45
f 39/100/47 38/99/46 20/91/26 14/90/25
f 30/95/42 39/100/47 14/90/25 19/87/2
f 40/96/43 30/95/42 19/87/2 13/86/1
s 17
f 68/151/83 67/152/84 69/153/85 70/154/86
s 3
f 29/11/59 41/10/58 18/4/12 22/3/11
f 42/13/67 29/11/59 22/3/11 17/8/36
f 37/17/87 42/13/67 17/8/36 21/7/35
f 43/18/88 37/17/87 21/7/35 16/15/75
s 4
f 61/120/14 62/141/51 43/140/50 16/121/15
s 1
f 38/99/46 44/105/82 15/103/70 20/91/26
s 3
f 45/5/33 28/2/10 24/19/89 11/20/90
f 32/21/91 36/6/34 45/5/33 11/20/90
f 46/16/76 36/6/34 32/21/91 8/22/92
s 4
f 59/148/93 60/119/13 46/122/16 8/149/94
s 1
f 31/106/95 35/92/27 47/102/69 2/107/96
f 48/93/28 35/92/27 31/106/95 10/108/97
f 23/109/98 27/88/3 48/93/28 10/108/97
f 49/89/4 27/88/3 23/109/98 4/110/99
s 2
f 50/118/8 54/117/7 55/123/100 6/126/101
s 3
f 24/19/89 28/2/10 50/1/9 6/23/102
s 15
f 3/46/103 40/47/104 52/48/62 51/49/61
s 17
f 69/50/85 67/51/84 71/52/105 72/53/106
s 2
f 54/54/7 53/55/6 13/56/107 49/57/108
f 55/58/100 54/54/7 49/57/108 4/59/109
s 5
f 23/60/110 56/61/18 55/58/17 4/59/111
f 10/62/112 57/160/65 56/61/18 23/60/110
s 8
f 77/64/113 74/65/30 73/66/29 78/67/114
s 16
f 2/68/115 59/69/72 58/70/71 31/71/116
s 4
f 47/72/117 60/73/13 59/69/93 2/68/118
f 15/74/119 61/75/14 60/73/13 47/72/117
f 44/76/120 62/77/51 61/75/14 15/74/119
f 63/78/52 62/77/51 44/76/120 1/79/121
s 6
f 64/80/38 63/78/80 1/79/122 34/81/123
f 65/82/39 64/80/38 34/81/123 9/83/124
f 66/157/22 65/82/39 9/83/124 26/158/125
f 51/49/23 66/84/22 26/85/125 3/46/126
s off
f 41/144/127 52/143/128 67/152/129 68/151/130
f 53/116/131 18/115/132 70/154/133 69/153/134
f 18/4/135 41/10/136 68/24/137 70/25/138
f 52/48/139 40/47/140 71/52/141 67/51/142
f 40/96/143 13/86/144 72/111/145 71/112/146
f 13/56/147 53/55/148 69/50/149 72/53/150
s 18
f 58/147/151 32/150/152 75/133/153 74/132/154
s off
f 32/21/155 11/20/156 76/26/157 75/27/158
s 19
f 11/146/159 57/145/160 73/131/161 76/134/162
s 18
f 31/71/163 58/70/151 74/65/154 77/64/164
s 19
f 57/63/160 10/159/165 78/67/166 73/66/161
s off
f 10/108/167 31/106/168 77/113/169 78/114/170
f 12/28/171 42/29/172 79/30/173 80/31/174
s 20
f 42/29/175 37/32/176 81/33/177 79/30/178
s 6
f 33/34/37 12/28/40 80/31/179 82/35/180
s 20
f 37/32/176 43/36/181 83/37/182 81/33/177
s 4
f 43/36/50 7/38/49 84/39/183 83/37/184
s off
f 7/38/185 33/34/186 82/35/187 84/39/188
